<svg xmlns="http://www.w3.org/2000/svg" width="417" height="411" viewBox="0 0 417 411">
  <g fill="#FFF" fill-rule="evenodd" transform="translate(0 -31)">
    <path d="M47.5612273,9.425238 C-4.54242547,64.5483294 -5.72571082,159.859181 27.9163487,216.800436 C61.5814363,273.780667 93.1282321,302.098682 148.143165,346.093142 C149.539746,347.209964 152.022195,348.08069 152.351592,349.315559 C153.336226,353.006837 149.420807,351.074393 145.231865,347.842427 C87.5249314,303.31881 57.1296127,276.491121 22.6929252,218.169179 C-11.0265157,161.061964 -9.60825664,63.3990301 43.5309066,6.69811998 C31.7016945,13.1611487 19.7806877,18.4152211 7.72887483,23.2442085 C4.93825952,24.3611299 5.21423557,20.6997234 7.99452464,19.5858484 C21.0941364,14.337541 34.0161697,8.55661167 46.84316,1.21541265 C48.4240801,0.310552947 49.376874,0.990253195 49.3657328,2.0257063 C49.6537376,2.19979664 49.8801548,2.5194317 49.986076,3.0152281 C52.8122094,16.2282636 53.3968833,30.0771698 53.3682437,44.0178243 C53.3652633,46.5427647 49.8661885,47.2873634 49.8718202,44.7532793 C49.8951283,32.8142335 49.5220313,20.8848134 47.5612273,9.425238 Z" transform="rotate(122 167.097 214.546)"/>
    <path d="M-199.294677,241.128374 C-186.141524,242.424131 -173.065507,240.833973 -160.002493,239.150573 C-146.042082,237.351174 -132.050985,236.31782 -118.019004,235.601137 C-89.0400064,234.120673 -60.0125907,234.267457 -31.0116704,234.926812 C-2.42025321,235.574877 26.1620816,236.776119 54.750662,237.569186 C82.9289898,238.349792 111.083718,237.669547 139.258085,237.305541 C162.55726,237.004124 185.869988,237.12363 209.138684,238.864259 C210.823945,238.990623 211.197951,235.91263 209.500387,235.785243 C181.426426,233.685665 153.300714,233.967843 125.196365,234.423164 C96.0909062,234.89541 67.0465167,234.900671 37.9426601,233.977009 C-18.7179644,232.178393 -75.4425487,229.549527 -132.069007,233.321483 C-154.243556,234.797899 -176.694274,240.241632 -198.932974,238.049359 C-200.618875,237.883115 -200.99114,240.961402 -199.294677,241.128374" transform="rotate(-90 5.103 236.5)"/>
  </g>
</svg>
