<svg xmlns="http://www.w3.org/2000/svg" viewBox="0 0 24 20" version="1.1" xml:space="preserve" x="0" y="0" width="24" height="20" background-color="#ffffff00">	<path d="M2 2L22 2 22 18 2 18 2 2ZM2 0C0.9 0 0 0.9 0 2L0 18C0 19.1 0.9 20 2 20L22 20C23.1 20 24 19.1 24 18L24 2C24 0.9 23.1 0 22 0L2 0ZM10.2 12.5L8.2 10.5C7.9 10.2 7.5 10.2 7.2 10.5 6.9 10.8 6.9 11.2 7.2 11.5L9.7 14.1C10 14.3 10.5 14.3 10.7 14.1L17.8 7C18.1 6.7 18.1 6.2 17.8 6 17.6 5.7 17.1 5.7 16.8 6L10.5 12.3 10.2 12.5Z" fill="#cccccc"/></svg>