<?xml version="1.0" standalone="no"?><!-- Generator: Adobe Fireworks CS6, Export SVG Extension by Aaron Beall (http://fireworks.abeall.com) . Version: 0.6.1  --><!DOCTYPE svg PUBLIC "-//W3C//DTD SVG 1.1//EN" "http://www.w3.org/Graphics/SVG/1.1/DTD/svg11.dtd"><svg id="Untitled-Page%201" viewBox="0 0 14 14" style="background-color:#ffffff00" version="1.1"	xmlns="http://www.w3.org/2000/svg" xmlns:xlink="http://www.w3.org/1999/xlink" xml:space="preserve"	x="0px" y="0px" width="14px" height="14px">	<g id="Layer%201">		<g id="shape-tag">			<path id="Shape" d="M 2.45 3.5 C 1.869 3.5 1.4 3.031 1.4 2.45 C 1.4 1.869 1.869 1.4 2.45 1.4 C 3.031 1.4 3.5 1.869 3.5 2.45 C 3.5 3.031 3.031 3.5 2.45 3.5 L 2.45 3.5 L 2.45 3.5 ZM 13.587 6.706 L 7.287 0.406 C 7.035 0.154 6.685 0 6.3 0 L 1.4 0 C 0.63 0 0 0.63 0 1.4 L 0 6.3 C 0 6.685 0.154 7.035 0.413 7.294 L 6.713 13.594 C 6.965 13.846 7.315 14 7.7 14 C 8.085 14 8.435 13.846 8.687 13.587 L 13.587 8.687 C 13.8459 8.435 14 8.085 14 7.7 C 14 7.315 13.839 6.958 13.587 6.706 L 13.587 6.706 L 13.587 6.706 Z" fill="#084d55"/>		</g>	</g></svg>