<svg xmlns="http://www.w3.org/2000/svg" viewBox="0 0 17 12" version="1.1" xml:space="preserve" x="0" y="0" width="17" height="12" background-color="#ffffff00">	<path d="M8.5 3.6C7.2 3.6 6.2 4.7 6.2 6 6.2 7.3 7.2 8.4 8.5 8.4 9.8 8.4 10.8 7.3 10.8 6 10.8 4.7 9.8 3.6 8.5 3.6L8.5 3.6 8.5 3.6ZM8.5 10C6.4 10 4.6 8.2 4.6 6 4.6 3.8 6.4 2 8.5 2 10.6 2 12.4 3.8 12.4 6 12.4 8.2 10.6 10 8.5 10L8.5 10 8.5 10ZM8.5 0C4.6 0 1.3 2.5 0 6 1.3 9.5 4.6 12 8.5 12 12.4 12 15.7 9.5 17 6 15.7 2.5 12.4 0 8.5 0L8.5 0 8.5 0Z" fill="#888787"/></svg>