<svg xmlns="http://www.w3.org/2000/svg" width="16" height="16" viewBox="0 0 16 16">
  <g fill="none" fill-rule="evenodd">
    <circle cx="8" cy="8" r="8" fill="#D8D8D8"/>
    <path fill="#FFF" d="M6.58447266,9.19384766 L6.58447266,8.73193359 C6.58447266,8.38102038 6.65608652,8.08471801 6.79931641,7.84301758 C6.94254629,7.60131715 7.19677552,7.36588656 7.56201172,7.13671875 C7.85205223,6.95410065 8.06062762,6.78938875 8.18774414,6.64257812 C8.31486066,6.4957675 8.37841797,6.32747491 8.37841797,6.13769531 C8.37841797,5.98730394 8.31038479,5.86824588 8.17431641,5.78051758 C8.03824802,5.69278927 7.8610037,5.64892578 7.64257812,5.64892578 C7.10188532,5.64892578 6.46989294,5.84049288 5.74658203,6.22363281 L5,4.76269531 C5.89160602,4.25422923 6.82258629,4 7.79296875,4 C8.59147535,4 9.21809668,4.17545397 9.67285156,4.52636719 C10.1276064,4.8772804 10.3549805,5.35530296 10.3549805,5.96044922 C10.3549805,6.39371961 10.2538259,6.76879724 10.0515137,7.08569336 C9.84920146,7.40258948 9.52604389,7.70247254 9.08203125,7.98535156 C8.70605281,8.22884236 8.47062222,8.40698186 8.37573242,8.51977539 C8.28084262,8.63256892 8.23339844,8.76594975 8.23339844,8.91992188 L8.23339844,9.19384766 L6.58447266,9.19384766 Z M6.35351562,11.0737305 C6.35351562,10.7443017 6.44929917,10.4900725 6.64086914,10.3110352 C6.83243911,10.1319978 7.11441871,10.0424805 7.48681641,10.0424805 C7.84489111,10.0424805 8.11970933,10.132893 8.3112793,10.3137207 C8.50284927,10.4945484 8.59863281,10.7478825 8.59863281,11.0737305 C8.59863281,11.3995785 8.49926857,11.6520173 8.30053711,11.8310547 C8.10180565,12.010092 7.83056813,12.0996094 7.48681641,12.0996094 C7.13232245,12.0996094 6.85481871,12.0109872 6.65429688,11.8337402 C6.45377504,11.6564933 6.35351562,11.4031592 6.35351562,11.0737305 Z"/>
  </g>
</svg>
