<?xml version="1.0" standalone="no"?><!-- Generator: Adobe Fireworks CS6, Export SVG Extension by Aaron Beall (http://fireworks.abeall.com) . Version: 0.6.1  --><!DOCTYPE svg PUBLIC "-//W3C//DTD SVG 1.1//EN" "http://www.w3.org/Graphics/SVG/1.1/DTD/svg11.dtd"><svg id="Untitled-Page%201" viewBox="0 0 14 14" style="background-color:#ffffff00" version="1.1"	xmlns="http://www.w3.org/2000/svg" xmlns:xlink="http://www.w3.org/1999/xlink" xml:space="preserve"	x="0px" y="0px" width="14px" height="14px">	<g id="Layer%201">		<g id="shape-archive">			<text id="header" x="-819" y="3" width="126" fill="#797979" style="font-size: 11.2px; color: #797979; font-family: Open Sans; text-align: left; "><tspan><![CDATA[                                    ]]></tspan></text>			<path id="Shape" d="M 1.6489 1.7778 L 2.2789 1 L 11.6122 1 L 12.3433 2 L 1.6489 2 L 1.6489 2 L 1.6489 1.7778 ZM 3.7222 8 L 6 8 L 6 6 L 8 6 L 8 8 L 9.7222 8 L 7 11.2778 L 3.7222 8 ZM 13.6422 1.7345 L 12.5611 0.4278 C 12.3511 0.1633 12.0322 0 11.6667 0 L 2.3333 0 C 1.9678 0 1.6489 0.1633 1.4311 0.4278 L 0.3578 1.7345 C 0.1322 1.9989 0 2.3489 0 2.7222 L 0 12.4444 C 0 13.3 0.7 14 1.5555 14 L 12.4445 14 C 13.3 14 14 13.3 14 12.4444 L 14 2.7222 C 14 2.3489 13.8678 1.9989 13.6422 1.7345 L 13.6422 1.7345 L 13.6422 1.7345 Z" fill="#084d55"/>		</g>	</g></svg>