<svg xmlns="http://www.w3.org/2000/svg" viewBox="0 0 24 20" version="1.1" xml:space="preserve" x="0" y="0" width="24" height="20" background-color="#ffffff00">	<path d="M2 2L22 2 22 18 2 18 2 2ZM2 0C0.9 0 0 0.9 0 2L0 18C0 19.1 0.9 20 2 20L22 20C23.1 20 24 19.1 24 18L24 2C24 0.9 23.1 0 22 0L2 0ZM15 8.7L15 14 17 14 17 7 15.1 7 12.8 9 13.6 10 15 8.7ZM8.3 9.9L8 9.9 8 11.2 8.4 11.2C8.5 11.2 9 11.2 9.2 11.2 9.3 11.2 9.5 11.3 9.6 11.3 9.8 11.4 9.9 11.5 10 11.6 10 11.7 10.1 11.8 10.1 12 10.1 12.3 10 12.5 9.8 12.7 9.7 12.9 9.4 13 9.1 13 8.8 13 8.6 12.9 8.4 12.7 8.2 12.6 8.1 12.4 8.1 12.1L6.5 12.5C6.6 13.1 6.9 13.6 7.4 13.9 7.8 14.2 8.4 14.3 9 14.3 9.4 14.3 9.7 14.3 10 14.2 10.3 14.1 10.6 14 10.8 13.8 11.1 13.6 11.2 13.4 11.4 13.1 11.5 12.9 11.6 12.6 11.6 12.2 11.6 12 11.6 11.8 11.5 11.6 11.4 11.4 11.4 11.3 11.2 11.1 11.1 11 11 10.8 10.8 10.7 10.7 10.6 10.5 10.6 10.3 10.5L10.3 10.5C10.6 10.4 10.9 10.3 11.2 10 11.4 9.7 11.5 9.4 11.5 9 11.5 8.6 11.4 8.3 11.3 8.1 11.1 7.8 11 7.6 10.7 7.5 10.5 7.3 10.3 7.2 10 7.1 9.7 7 9.4 7 9.1 7 8.8 7 8.5 7 8.2 7.1 7.9 7.1 7.7 7.2 7.5 7.4 7.2 7.5 7.1 7.7 6.9 7.9 6.7 8.1 6.6 8.4 6.5 8.7L8.2 9C8.2 8.8 8.3 8.7 8.5 8.6 8.6 8.4 8.8 8.4 9.1 8.4 9.3 8.4 9.5 8.4 9.7 8.6 9.9 8.7 10 8.9 10 9.1 10 9.3 9.9 9.4 9.9 9.5 9.8 9.6 9.7 9.7 9.6 9.8 9.5 9.8 9.4 9.9 9.2 9.9 9.1 9.9 9 9.9 8.8 9.9L8.3 9.9Z" fill="#cccccc"/></svg>