<svg xmlns="http://www.w3.org/2000/svg" viewBox="0 0 15 15" version="1.1" xml:space="preserve" x="0" y="0" width="15" height="15" background-color="#ffffff00">	<path d="M8.3 9.6C8 9.6 7.7 9.4 7.5 9.2L6.9 8.6 6.4 8.1 5.8 7.5C5.6 7.3 5.4 7 5.4 6.7 5.4 6.4 5.6 6.2 5.9 6.2L6.9 6.2 9.8 3.7 10.1 3.2C10.2 3 10.4 2.9 10.6 3.1L11.9 4.4C12.1 4.6 12 4.8 11.8 4.9L11.3 5.2 8.8 8.1 8.8 9.1C8.8 9.4 8.6 9.6 8.3 9.6ZM9 12C9.6 12 10 11.6 10 11L10 9 13 5 14.1 4.4C14.6 4.2 14.7 3.7 14.3 3.3L11.7 0.7C11.3 0.3 10.8 0.4 10.5 0.9L10 2 6 5 4 5C3.4 5 3 5.4 3 6 3 6.6 3.3 7.3 3.7 7.7L5 9 0 14 0 15 1 15 6 10 7.3 11.3C7.7 11.7 8.4 12 9 12Z" fill="#cccccc"/></svg>