<svg xmlns="http://www.w3.org/2000/svg" version="1.1" xml:space="preserve" width="364.17645263671875" height="345.0588073730469" background-color="#ffffff00" style=""><rect id="backgroundrect" width="100%" height="100%" x="0" y="0" fill="none" stroke="none"/>
	
<g class="currentLayer" style=""><title>Layer 1</title><path d="M215.11029148101807,138.93871974945068 L215.11029148101807,220.9264621734619 L163.77205562591553,220.9264621734619 L163.77205562591553,138.93871974945068 L138.95857496261596,138.93871974945068 L189.4411735534668,97.94484853744507 L240.77940940856934,138.93871974945068 L215.11029148101807,138.93871974945068 zM155.21568298339844,146.39215087890625 L155.21568298339844,228.37989330291748 L223.66666412353516,228.37989330291748 L223.66666412353516,146.39215087890625 L257.8921546936035,146.39215087890625 L189.4411735534668,86.76470184326172 L120.99019241333008,146.39215087890625 L155.21568298339844,146.39215087890625 zM86.76470184326172,220.9264621734619 L86.76470184326172,265.6470489501953 L292.1176452636719,265.6470489501953 L292.1176452636719,220.9264621734619 L283.5612726211548,220.9264621734619 L283.5612726211548,258.19361782073975 L95.32107448577881,258.19361782073975 L95.32107448577881,220.9264621734619 L86.76470184326172,220.9264621734619 z" fill="#45b6c5" id="svg_1" class=""/><rect fill="#45b6c5" stroke-dashoffset="" fill-rule="nonzero" id="svg_2" x="162" y="141" width="56" height="86" style="color: rgb(74, 144, 214);"/><rect fill="#45b6c5" stroke-dashoffset="" fill-rule="nonzero" id="svg_4" x="161" y="120" width="57" height="26" style="color: rgb(74, 144, 214);"/><path fill="#45b6c5" stroke-dashoffset="" fill-rule="nonzero" marker-start="" marker-mid="" marker-end="" id="svg_6" d="M105.09704976332254,154.72417697101892 L186.71468731227117,73.38068451226242 L268.3323248612166,154.72417697101892 L227.52350333869887,154.72417697101892 L227.52350333869887,236.45907914796098 L145.9058712858443,236.45907914796098 L145.9058712858443,154.72417697101892 L105.09704976332254,154.72417697101892 z" style="color: rgb(74, 144, 214);"/></g></svg>