<svg xmlns="http://www.w3.org/2000/svg" viewBox="0 0 22 22" version="1.1" xml:space="preserve" x="0" y="0" width="22" height="22" background-color="#ffffff00">	<path d="M2 2L20 2 20 6 2 6 2 2ZM2 0C0.9 0 0 0.9 0 2L0 6C0 7.1 0.9 8 2 8L20 8C21.1 8 22 7.1 22 6L22 2C22 0.9 21.1 0 20 0L2 0ZM2 16L20 16 20 20 2 20 2 16ZM2 14C0.9 14 0 14.9 0 16L0 20C0 21.1 0.9 22 2 22L20 22C21.1 22 22 21.1 22 20L22 16C22 14.9 21.1 14 20 14L2 14ZM19 10C18.4 10 18 10.4 18 11 18 11.6 18.4 12 19 12 19.6 12 20 11.6 20 11 20 10.4 19.6 10 19 10ZM15 10C14.4 10 14 10.4 14 11 14 11.6 14.4 12 15 12 15.6 12 16 11.6 16 11 16 10.4 15.6 10 15 10ZM11 10C10.4 10 10 10.4 10 11 10 11.6 10.4 12 11 12 11.6 12 12 11.6 12 11 12 10.4 11.6 10 11 10ZM3 10C2.4 10 2 10.4 2 11L2 11C2 11.6 2.4 12 3 12 3.6 12 4 11.6 4 11 4 10.4 3.6 10 3 10ZM7 10C6.4 10 6 10.4 6 11 6 11.6 6.4 12 7 12 7.6 12 8 11.6 8 11 8 10.4 7.6 10 7 10Z" fill="#cdcdcd"/></svg>