<svg xmlns="http://www.w3.org/2000/svg" viewBox="0 0 7 14" version="1.1" xml:space="preserve" x="0" y="0" width="7" height="14" background-color="#ffffff00">	<path d="M6 3L6 10.5C6 11.9 4.9 13 3.5 13 2.1 13 1 11.9 1 10.5L1 2.5C1 1.7 1.7 1 2.5 1 3.4 1 4 1.7 4 2.6L4 9.4C4 9.8 3.9 10 3.5 10 3.2 10 3 9.7 3 9.4L3 3 2 3 2 9.4C2 10.2 2.7 11 3.5 11 4.4 11 5 10.3 5 9.4L5 2.6C5 1.2 4 0 2.5 0 1.1 0 0 1.1 0 2.5L0 10.5C0 12.4 1.6 14 3.5 14 5.4 14 7 12.4 7 10.5L7 3 6 3 6 3 6 3Z" stroke="#5f5e5e0a" stroke-width="1" fill="#5f5e5e"/></svg>