<?xml version="1.0" encoding="UTF-8" standalone="no"?>
<svg width="9px" height="13px" viewBox="0 0 9 13" version="1.1" xmlns="http://www.w3.org/2000/svg" xmlns:xlink="http://www.w3.org/1999/xlink">
    <!-- Generator: Sketch 41.2 (35397) - http://www.bohemiancoding.com/sketch -->
    <title>Combined Shape</title>
    <desc>Created with Sketch.</desc>
    <defs></defs>
    <g id="documentFields---1" stroke="none" stroke-width="1" fill="none" fill-rule="evenodd">
        <g id="fieldsAssignDropdown-Modal-2" transform="translate(-461.000000, -400.000000)" fill="#D3D3D3">
            <g id="signatureModal" transform="translate(430.000000, 172.000000)">
                <g id="Group-6" transform="translate(20.000000, 78.000000)">
                    <path d="M11,151.009812 C11,150.452108 11.4463114,150 11.9975446,150 L19.0024554,150 C19.553384,150 20,150.448441 20,151.009812 L20,161.590188 C20,162.147892 19.5536886,162.6 19.0024554,162.6 L11.9975446,162.6 C11.446616,162.6 11,162.151559 11,161.590188 L11,151.009812 Z M16.5,153.876923 L14.5,153.876923 C14.2,153.876923 14,153.683077 14,153.392308 C14,153.101538 14.2,152.907692 14.5,152.907692 L16.5,152.907692 C16.8,152.907692 17,153.101538 17,153.392308 C17,153.683077 16.8,153.876923 16.5,153.876923 Z M16.5,156.784615 L14.5,156.784615 C14.2,156.784615 14,156.590769 14,156.3 C14,156.009231 14.2,155.815385 14.5,155.815385 L16.5,155.815385 C16.8,155.815385 17,156.009231 17,156.3 C17,156.590769 16.8,156.784615 16.5,156.784615 Z M16.5,159.692308 L14.5,159.692308 C14.2,159.692308 14,159.498462 14,159.207692 C14,158.916923 14.2,158.723077 14.5,158.723077 L16.5,158.723077 C16.8,158.723077 17,158.916923 17,159.207692 C17,159.498462 16.8,159.692308 16.5,159.692308 Z" id="Combined-Shape"></path>
                </g>
            </g>
        </g>
    </g>
</svg>