<svg xmlns="http://www.w3.org/2000/svg" viewBox="0 0 12 12" version="1.1" xml:space="preserve" x="0" y="0" width="12" height="12" background-color="#ffffff00">
	<path d="M6 8.1C4.8 8.1 3.8 7.2 3.8 6 3.8 4.8 4.8 3.9 6 3.9 7.2 3.9 8.2 4.8 8.2 6 8.2 7.2 7.2 8.1 6 8.1L6 8.1 6 8.1ZM10.6 6.6C10.6 6.4 10.6 6.2 10.6 6 10.6 5.8 10.6 5.6 10.6 5.4L11.9 4.4C12 4.3 12 4.2 12 4L10.7 2C10.7 1.8 10.5 1.8 10.4 1.8L8.8 2.4C8.5 2.2 8.1 2 7.8 1.8L7.5 0.3C7.5 0.1 7.4 0 7.2 0L4.8 0C4.6 0 4.5 0.1 4.5 0.3L4.2 1.8C3.9 2 3.5 2.2 3.2 2.4L1.7 1.8C1.5 1.8 1.4 1.8 1.3 2L0 4C0 4.2 0 4.3 0.1 4.4L1.4 5.4C1.4 5.6 1.4 5.8 1.4 6 1.4 6.2 1.4 6.4 1.4 6.6L0.1 7.6C0 7.7 0 7.8 0 8L1.3 10C1.4 10.2 1.5 10.2 1.7 10.2L3.2 9.6C3.5 9.8 3.9 10 4.2 10.2L4.5 11.7C4.5 11.9 4.6 12 4.8 12L7.2 12C7.4 12 7.5 11.9 7.5 11.7L7.8 10.2C8.1 10 8.5 9.8 8.8 9.6L10.4 10.2C10.5 10.2 10.7 10.2 10.7 10L12 8C12 7.8 12 7.7 11.9 7.6L10.6 6.6 10.6 6.6 10.6 6.6Z" fill="#FFF"/>
</svg>