<svg xmlns="http://www.w3.org/2000/svg" viewBox="0 0 48 48" version="1.1" xml:space="preserve" x="0" y="0" width="48" height="48" background-color="#ffffff00">	<path d="M24 35C24 28.9 28.9 24 35 24 41.1 24 46 28.9 46 35 46 41.1 41.1 46 35 46 28.9 46 24 41.1 24 35ZM22 35C22 42.2 27.8 48 35 48 42.2 48 48 42.2 48 35 48 27.8 42.2 22 35 22 27.8 22 22 27.8 22 35ZM39.6 31.3L33.8 37.6 30.3 34.5 29 36.1 33.9 40.3 41.1 32.8 39.6 31.3ZM2 8L2 5C2 3.3 3.3 2 5 2L37 2C38.7 2 40 3.3 40 5L40 8 2 8ZM4 0C1.8 0 0 1.8 0 4L0 30C0 32.2 1.8 34 4 34L20 34 20 32 5 32C3.3 32 2 30.7 2 29L2 10 40 10 40 21 42 21 42 4C42 1.8 40.2 0 38 0L4 0Z" fill="#45b6c5"/></svg>