<svg xmlns="http://www.w3.org/2000/svg" viewBox="0 0 16 16" version="1.1" xml:space="preserve" x="0" y="0" width="16" height="16" background-color="#ffffff00">
	<path d="M8 10.8C6.4 10.8 5.1 9.5 5.1 8 5.1 6.5 6.4 5.2 8 5.2 9.6 5.2 10.9 6.5 10.9 8 10.9 9.5 9.6 10.8 8 10.8L8 10.8 8 10.8ZM14.2 8C14.2 7.7 14.1 7.5 14.1 7.2L15.8 5.9C16 5.8 16 5.6 15.9 5.4L14.3 2.6C14.2 2.4 14 2.4 13.8 2.4L11.8 3.2C11.3 2.9 10.9 2.7 10.4 2.5L10 0.3C10 0.1 9.9 0 9.6 0L6.4 0C6.2 0 6 0.1 6 0.3L5.6 2.5C5.1 2.7 4.7 2.9 4.3 3.2L2.2 2.4C2 2.4 1.8 2.4 1.7 2.6L0.1 5.4C0 5.6 0 5.8 0.2 5.9L1.9 7.2C1.9 7.5 1.8 7.7 1.8 8 1.8 8.3 1.9 8.5 1.9 8.8L0.2 10.1C0 10.2 0 10.4 0.1 10.6L1.7 13.4C1.8 13.6 2 13.6 2.2 13.6L4.3 12.8C4.7 13.1 5.1 13.3 5.6 13.5L6 15.7C6 15.9 6.2 16 6.4 16L9.6 16C9.9 16 10 15.9 10 15.7L10.4 13.5C10.9 13.3 11.3 13.1 11.8 12.8L13.8 13.6C14 13.6 14.2 13.6 14.3 13.4L15.9 10.6C16 10.4 16 10.2 15.8 10.1L14.1 8.8C14.1 8.5 14.2 8.3 14.2 8L14.2 8Z" fill="#AFAEAE"/>
</svg>