<svg xmlns="http://www.w3.org/2000/svg" viewBox="0 0 32 20" version="1.1" xml:space="preserve" x="0" y="0" width="32" height="20" background-color="#ffffff00">	<path d="M1 18C0.4 18 0 18.4 0 19 0 19.6 0.4 20 1 20L27 20C27.6 20 28 19.6 28 19 28 18.4 27.6 18 27 18L1 18ZM1 12C0.4 12 0 12.4 0 13 0 13.6 0.4 14 1 14L19 14C19.6 14 20 13.6 20 13 20 12.4 19.6 12 19 12L1 12ZM1 0C0.4 0 0 0.4 0 1 0 1.6 0.4 2 1 2L25 2C25.6 2 26 1.6 26 1 26 0.4 25.6 0 25 0L1 0ZM1 6C0.4 6 0 6.4 0 7 0 7.6 0.4 8 1 8L31 8C31.6 8 32 7.6 32 7 32 6.4 31.6 6 31 6L1 6Z" fill="#cccccc"/></svg>