<svg xmlns="http://www.w3.org/2000/svg" viewBox="0 0 24 20" version="1.1" xml:space="preserve" x="0" y="0" width="24" height="20" background-color="#ffffff00">	<path d="M2 2L22 2 22 18 2 18 2 2ZM2 0C0.9 0 0 0.9 0 2L0 18C0 19.1 0.9 20 2 20L22 20C23.1 20 24 19.1 24 18L24 2C24 0.9 23.1 0 22 0L2 0ZM7 7C7 8.1 7.9 9 9 9 10.1 9 11 8.1 11 7 11 5.9 10.1 5 9 5 7.9 5 7 5.9 7 7ZM13 14L13 15 20 15 20 14 13 14ZM13 11L13 12 20 12 20 11 13 11ZM13 8L13 9 20 9 20 8 13 8ZM13 5L13 6 17 6 17 5 13 5ZM5 13.2L5 15 11 15 11 11.2 5 13.2Z" fill="#cccccc"/></svg>