<svg xmlns="http://www.w3.org/2000/svg" viewBox="0 0 48 48" version="1.1" xml:space="preserve" x="0" y="0" width="48" height="48" background-color="#ffffff00">	<path d="M31.8 43.8L29.1 45.5 26 46 26.5 42.9 28.2 40.2 31.8 43.8ZM41.8 33.8L32.8 42.8 29.2 39.2 38.2 30.2 41.8 33.8ZM42.4 26L46 29.6 42.8 32.8 39.2 29.2 42.4 26ZM42.1 24L25 41.1 24 48 30.9 47 48 29.9 42.1 24ZM2 8L2 5C2 3.3 3.3 2 5 2L37 2C38.7 2 40 3.3 40 5L40 8 2 8ZM4 0C1.8 0 0 1.8 0 4L0 30C0 32.2 1.8 34 4 34L20 34 20 32 5 32C3.3 32 2 30.7 2 29L2 10 40 10 40 21 42 21 42 4C42 1.8 40.2 0 38 0L4 0Z" fill="#45b6c5"/></svg>