<svg xmlns="http://www.w3.org/2000/svg" viewBox="0 0 23 14" version="1.1" xml:space="preserve" x="0" y="0" width="23" height="14" background-color="#ffffff00">	<path d="M1 12C0.4 12 0 12.4 0 13 0 13.6 0.4 14 1 14 1.6 14 2 13.6 2 13 2 12.4 1.6 12 1 12ZM1 8C0.4 8 0 8.4 0 9 0 9.6 0.4 10 1 10 1.6 10 2 9.6 2 9 2 8.4 1.6 8 1 8ZM1 4C0.4 4 0 4.4 0 5 0 5.6 0.4 6 1 6 1.6 6 2 5.6 2 5 2 4.4 1.6 4 1 4ZM1 0C0.4 0 0 0.4 0 1 0 1.6 0.4 2 1 2 1.6 2 2 1.6 2 1 2 0.4 1.6 0 1 0ZM5 12C4.4 12 4 12.4 4 13 4 13.6 4.4 14 5 14L22 14C22.6 14 23 13.6 23 13 23 12.4 22.6 12 22 12L5 12ZM5 8C4.4 8 4 8.4 4 9 4 9.6 4.4 10 5 10L22 10C22.6 10 23 9.6 23 9 23 8.4 22.6 8 22 8L5 8ZM5 4C4.4 4 4 4.4 4 5 4 5.6 4.4 6 5 6L22 6C22.6 6 23 5.6 23 5 23 4.4 22.6 4 22 4L5 4ZM5 0C4.4 0 4 0.4 4 1 4 1.6 4.4 2 5 2L22 2C22.6 2 23 1.6 23 1 23 0.4 22.6 0 22 0L5 0Z" fill="#cccccc"/></svg>