<svg xmlns="http://www.w3.org/2000/svg" viewBox="0 0 20 20" version="1.1" xml:space="preserve" x="0" y="0" width="20" height="20" background-color="#ffffff00">	<path d="M2 10C2 5.6 5.6 2 10 2 14.4 2 18 5.6 18 10 18 14.4 14.4 18 10 18 5.6 18 2 14.4 2 10ZM0 10C0 15.5 4.5 20 10 20 15.5 20 20 15.5 20 10 20 4.5 15.5 0 10 0 4.5 0 0 4.5 0 10ZM8.4 14.9C8.9 15 9.4 15 10 15L10 16 11 16 11 14.9C11.6 14.8 12.1 14.6 12.5 14.1 12.8 13.7 13 13.1 13 12.5 13 12 12.9 11.7 12.8 11.4 12.7 11.1 12.5 10.8 12.2 10.6 11.9 10.4 11.5 10.1 11 9.9L11 6.7C11.5 6.8 12 6.9 12.5 7.2L12.8 6.3C12.2 5.9 11.6 5.7 11 5.7L11 4.4 10 4.4 10 5.7C9.1 5.8 8.4 6.1 7.8 6.5 7.3 6.9 7 7.4 7 8 7 8.7 7.2 9.3 7.7 9.7 8.1 10.1 8.9 10.5 10 10.8L10 14C9.6 14 9.1 14 8.5 13.8 8 13.7 7.5 13.6 7.1 13.4L7.1 14.5C7.5 14.7 7.9 14.8 8.4 14.9ZM8.5 7.4C8.8 7.2 9.3 7 10 7L10 9.8C9.3 9.6 8.7 9.4 8.4 9.2 8.1 8.9 8 8.6 8 8.3 8 7.9 8.2 7.6 8.5 7.4ZM11 11.1C11.4 11.3 11.7 11.5 11.8 11.7 11.9 11.9 12 12.2 12 12.6 12 13.3 11.7 13.8 11 13.9L11 11.1Z" fill="#cccccc"/></svg>