<svg xmlns="http://www.w3.org/2000/svg" viewBox="0 0 22 16" version="1.1" xml:space="preserve" x="0" y="0" width="22" height="16" background-color="#ffffff00">	<path d="M1.4 14.4L1.4 14.4ZM13.5 5.1L5.6 13.1C5.5 13.2 4.5 13.6 3.2 14 3.2 14 1.9 14.2 1.4 14.4 1.6 13.8 1.8 12.6 1.8 12.6 2.2 11.2 2.6 10.3 2.7 10.1L10.6 2.2C11.4 1.3 12.7 1.3 13.5 2.2 14.3 3 14.3 4.3 13.5 5.1ZM9.6 1.2L1.7 9.2C1.4 9.5 1 10.5 0.5 12.2L-0.1 15.2C-0.2 15.7 0.3 16.1 0.8 16L3.6 15.3C5.3 14.8 6.2 14.5 6.6 14.1L14.5 6.1C15.8 4.8 15.8 2.5 14.5 1.2 13.1-0.2 10.9-0.2 9.6 1.2ZM11 14L21 14C21.6 14 22 14.4 22 15L22 15C22 15.6 21.6 16 21 16L11 16C10.4 16 10 15.6 10 15L10 15C10 14.4 10.4 14 11 14Z" fill="#cccccc"/></svg>