<svg xmlns="http://www.w3.org/2000/svg" width="19" height="19" viewBox="0 0 19 19">
  <path fill="#FFF" fill-rule="evenodd" d="M31.6931711,29.4 L37.1905838,29.4 C36.9690256,30.7965 35.5288973,33.4985714 31.6931711,33.4985714 C28.3836455,33.4985714 25.683405,30.8127857 25.683405,27.5 C25.683405,24.1885714 28.3836455,21.5014286 31.6931711,21.5014286 C33.5764157,21.5014286 34.8365279,22.2885714 35.5565921,22.9671429 L38.1875957,20.4835714 C36.4982144,18.9364286 34.3103272,18 31.6931711,18 C26.3342322,18 22,22.2478571 22,27.5 C22,32.7521429 26.3342322,37 31.6931711,37 C37.2875155,37 41,33.1457143 41,27.7171429 C41,27.0928571 40.9293783,26.6178571 40.846294,26.1428571 L31.6931711,26.1428571 L31.6931711,29.4 Z" transform="translate(-22 -18)"/>
</svg>
