<svg xmlns="http://www.w3.org/2000/svg" viewBox="0 0 24 20" version="1.1" xml:space="preserve" x="0" y="0" width="24" height="20" background-color="#ffffff00">	<path d="M15 8L15 12 9 12 9 8 15 8ZM2 12L2 8 8 8 8 12 2 12ZM8 18L2 18 2 14 8 14 8 18ZM15 18L9 18 9 14 15 14 15 18ZM22 14L22 18 16 18 16 14 22 14ZM22 8L22 12 16 12 16 8 22 8ZM16 2L22 2 22 6 16 6 16 2ZM9 2L15 2 15 6 9 6 9 2ZM2 2L8 2 8 6 2 6 2 2ZM2 0C0.9 0 0 0.9 0 2L0 18C0 19.1 0.9 20 2 20L22 20C23.1 20 24 19.1 24 18L24 2C24 0.9 23.1 0 22 0L2 0Z" fill="#cccccc"/></svg>