<svg xmlns="http://www.w3.org/2000/svg" viewBox="0 0 20 20" version="1.1" xml:space="preserve" x="0" y="0" width="20" height="20" background-color="#ffffff00">	<path d="M3 15L4 15 4 16 3 16 3 15ZM16 15L17 15 17 16 16 16 16 15ZM15 3L5 3 5 1 15 1 15 3ZM5 4L15 4 15 19 5 19 5 4ZM4 5L1 5 1 3 4 3 4 5ZM2.5 10C2.2 10 2 10.2 2 10.5 2 10.8 2.2 11 2.5 11L4 11 4 12 2.5 12C2.2 12 2 12.2 2 12.5 2 12.8 2.2 13 2.5 13L4 13 4 14 3 14C2.4 14 2 14.4 2 15L2 16C2 16.6 2.4 17 3 17L4 17 4 18 1 18 1 6 4 6 4 8 2.5 8C2.2 8 2 8.2 2 8.5 2 8.8 2.2 9 2.5 9L4 9 4 10 2.5 10ZM16 3L19 3 19 5 16 5 16 3ZM16 19L19 19C19.6 19 20 18.6 20 18L20 3C20 2.4 19.6 2 19 2L16 2 16 1C16 0.4 15.6 0 15 0L5 0C4.4 0 4 0.4 4 1L4 2 1 2C0.4 2 0 2.4 0 3L0 18C0 18.6 0.4 19 1 19L4 19C4 19.6 4.4 20 5 20L15 20C15.6 20 16 19.6 16 19ZM16 11L17.5 11C17.8 11 18 10.8 18 10.5 18 10.2 17.8 10 17.5 10L16 10 16 9 17.5 9C17.8 9 18 8.8 18 8.5 18 8.2 17.8 8 17.5 8L16 8 16 6 19 6 19 18 16 18 16 17 17 17C17.6 17 18 16.6 18 16L18 15C18 14.4 17.6 14 17 14L16 14 16 13 17.5 13C17.8 13 18 12.8 18 12.5 18 12.2 17.8 12 17.5 12L16 12 16 11ZM7 15L13 15 13 17 7 17 7 15ZM6 17C6 17.6 6.4 18 7 18L13 18C13.6 18 14 17.6 14 17L14 15C14 14.4 13.6 14 13 14L7 14C6.4 14 6 14.4 6 15L6 17ZM6.5 8C6.2 8 6 8.2 6 8.5 6 8.8 6.2 9 6.5 9L13.5 9C13.8 9 14 8.8 14 8.5 14 8.2 13.8 8 13.5 8L6.5 8ZM6.5 12C6.2 12 6 12.2 6 12.5 6 12.8 6.2 13 6.5 13L13.5 13C13.8 13 14 12.8 14 12.5 14 12.2 13.8 12 13.5 12L6.5 12ZM6.5 10C6.2 10 6 10.2 6 10.5 6 10.8 6.2 11 6.5 11L13.5 11C13.8 11 14 10.8 14 10.5 14 10.2 13.8 10 13.5 10L6.5 10Z" fill="#cccccc"/></svg>