<svg xmlns="http://www.w3.org/2000/svg" viewBox="0 0 22 14" version="1.1" xml:space="preserve" x="0" y="0" width="22" height="14" background-color="#ffffff00">	<path d="M1 12C0.4 12 0 12.4 0 13 0 13.6 0.4 14 1 14L21 14C21.6 14 22 13.6 22 13 22 12.4 21.6 12 21 12L1 12ZM5 4.3L7.5 6.8C7.8 7 8.1 7 8.4 6.8 8.6 6.6 8.6 6.2 8.4 6L5.8 3.5 7.8 1.6 8.4 1C8.6 0.8 8.6 0.4 8.4 0.2 8.2-0.1 7.8-0.1 7.5 0.2L5 2.7 3.1 0.8 2.5 0.2C2.2-0.1 1.8-0.1 1.6 0.2 1.4 0.4 1.4 0.8 1.6 1L4.2 3.5 1.6 6C1.4 6.2 1.4 6.6 1.6 6.8 1.9 7 2.3 7 2.5 6.8L5 4.3Z" fill="#cccccc"/></svg>