<svg xmlns="http://www.w3.org/2000/svg" width="280" height="60" viewBox="0 0 280 60" version="1.1"><title>Group</title><desc>Created with Sketch.</desc><g stroke="none" stroke-width="1" fill="none" fill-rule="evenodd"><g transform="translate(-389.000000, -221.000000)" fill-rule="nonzero" fill="#FFFFFF"><g transform="translate(389.000000, 221.000000)"><path d="M276.5 53.4L276.5 33.4C276.5 27.1 272.9 22.3 266.2 22.3 265 22.3 262.8 22.8 261.8 23.5 265.3 19.5 268 12.3 268 7.7 268 4.1 265.8 0.3 260.5 0.3 253.1 0.3 249.8 5.7 249.8 16L249.8 42.6C247.6 47.9 241.1 54.2 235.5 54.2 230.1 54.2 226.5 50.1 226.3 42.4 226.2 34.7 228.2 26.8 235.2 26.8 238.3 26.8 239.9 28.4 241.6 30.6L245.8 27.2C243.8 24.4 241.6 21.5 235.3 21.5 223.8 21.5 220 31.6 220.1 42.4 220.2 45.5 220.7 48.2 221.6 50.5 219.3 52.4 216.7 54.3 213.5 54.3 210.3 54.3 208.8 52.5 208.8 47.1L208.8 27C212 27.1 214.4 27.2 216.5 27 219.2 26.8 219.8 25.5 219.8 23.6 219.8 22.8 219.6 21.8 219 21.1 217.9 21.6 216.6 21.8 213.4 21.8 212.3 21.8 210.6 21.7 208.8 21.6L208.8 13.2C208.8 10.8 208 9.7 205.9 9.7 204.4 9.7 202.9 10.2 202.4 10.5 202.9 12.1 203 12.9 203 15.1L203 21.5C201 21.5 199.2 21.6 198.3 22 196.7 22.6 196.5 23.8 196.5 24.9 196.5 25.9 196.8 27 197.2 27.5 199.1 27.2 200.9 27 203 26.9L203 44.2C198.2 50.3 191.8 54.2 184.8 54.2 178.8 54.2 174.7 49.2 174.5 42.1L185.4 42.1C191.1 42.1 194.7 40.7 194.7 34.8 194.7 27.9 191.4 21.5 182.7 21.5 173.6 21.5 168.3 29.4 168.3 41.5 168.3 46.2 169.4 50.2 171.3 53.1 170.1 53.8 168.7 54.2 167 54.2 165.1 54.2 163.5 52.7 161.9 50.1 160.2 47.4 157.3 42.8 154.2 37.7 156.6 35 164.8 26.2 166.5 24.4 166.9 23.8 167.2 23.1 167 22.6 166.8 22.2 166.4 21.9 165.4 21.9L160.9 21.9C158.7 24.3 150.9 32.6 148.9 34.7L148.9 13.1C148.9 8.2 145.9 4.2 138.9 4.2 132.8 4.2 128.2 8.5 128.2 14.8 128.2 17.7 128.9 20.3 130.1 22.4 128.9 22 127.5 21.7 125.9 21.7 119.9 21.7 115.7 25.5 115.7 31.5 115.7 37.1 120.5 40 125.3 42.4 129.9 44.8 132.3 46.1 132.3 49.5 132.3 52.5 129.3 54.2 125.9 54.2 120.5 54.2 117.3 48.9 116.1 46.5L111.9 46.5C109.7 50.5 106.9 54.2 102.1 54.2 96.7 54.2 93.3 50.1 93.2 42.4 93 34.7 95.2 26.8 102.2 26.8 105.3 26.8 106.9 28.5 108.5 30.6L112.7 27.2C110.7 24.3 108.2 21.5 102.3 21.5 99.3 21.5 97 22.3 95 23.2 92.5 24.3 88.5 25.3 84.8 25.3 81.3 25.3 77.8 24.5 74.1 22.9 71.7 22 69.4 21.5 66.7 21.5 56.1 21.5 50.8 28.9 50.6 41 50.4 52.6 55.1 59.7 66.1 59.7 76 59.7 82.2 53 82.4 41 82.5 36.6 81.9 32.9 80.5 29.8 82.1 30 83.9 30.1 84.9 30.1 86 30.1 87.6 30.1 89.2 29.8 87.6 33.4 86.9 37.8 87 42.4 87.2 53.4 92.7 59.7 101.3 59.7 107.2 59.7 111.1 56.2 113.5 52.8 115.4 55.7 119.2 59.7 125.6 59.7 132.4 59.7 138.5 55.9 138.5 49.2 138.5 42 133.1 39.7 129.2 37.6 125 35.5 122 34 122 31 122 28.7 124 27.1 126.5 27.1 129 27.1 131.7 28.5 133.4 29.7L136.6 26.3C135.9 25.1 135.3 24.3 134.5 22.1 133.8 20.4 133.2 17.3 133.3 14.9 133.6 11.3 135.6 8.8 138.5 8.8 141.6 8.8 143.1 11.2 143.1 14.3L143.1 59.1 148.8 59.1 148.8 40.2C151.5 45 153.8 48.7 156.1 52.4 159.1 57.1 162.1 59.6 166.7 59.6 169.6 59.6 172.5 58.5 174.9 56.9 177.4 58.7 180.5 59.6 183.9 59.6 192.4 59.6 199.5 55.3 203.1 51.3 203.8 56.5 206.4 59.6 212.4 59.6 217.1 59.6 221.2 57.4 224 54.9 226.6 58 230.3 59.7 234.7 59.7 241.2 59.7 246.8 55 249.8 51.1L249.8 59.1 255.6 59.1 255.6 39.3C255.6 33.7 258.8 27.7 264.4 27.7 268.8 27.7 270.7 30 270.7 35.3L270.7 54.6C270.7 57.8 272 59.7 275.2 59.7 277.7 59.7 279 58.3 279.7 56.5 277.2 56.1 276.5 55.3 276.5 53.4M76.2 41C76 48.7 73.3 54.2 66.2 54.2 59.3 54.2 56.7 48.3 56.9 41 57 33.1 59.9 26.9 66.6 26.9 74 26.9 76.3 33.2 76.2 41M182.5 26.8C186.4 26.8 188.7 30.3 188.7 34.1 188.7 36.1 188.1 36.9 185.8 36.9L174.8 36.9C175.6 31.1 178 26.8 182.5 26.8M255.6 25.6L255.6 14.8C255.6 9.6 257 5.6 260.1 5.6 261.7 5.6 262.8 7.3 262.2 10.6 261.3 14.8 259.5 19.1 255.6 25.6M47 34.6C47 19 37.9 6.9 21.1 6.9 11.9 6.9 4.3 9.5 1 13.2 -0.5 14.9 0.3 18.2 3.3 18.8 7.8 14.7 15.4 13 20.9 13 33.6 13 40.4 23 40.4 34.6 40.4 45.7 35.8 53 24.8 53.8 17.3 53.8 15.7 51 15.8 43.4L15.8 23.8C15.9 21.3 15.1 20.2 12.8 20.2 11.1 20.2 9.5 20.7 8.9 21 9.4 22.6 9.5 23.4 9.4 25.7 9.4 25.7 9.5 40.3 9.4 44.9 9.3 55.5 13.7 59.7 24.7 59.7 37.4 59.7 47 51.9 47 34.6Z"/></g></g></g></svg>
